<svg width="213" height="44" viewBox="0 0 213 44" fill="none" xmlns="http://www.w3.org/2000/svg">
<path d="M116.023 43.2266C113.748 43.2266 112.106 42.6602 111.096 41.5273C110.095 40.3945 109.595 38.5915 109.595 36.1182V33.6826H114.522V36.7979C114.522 37.3737 114.607 37.8268 114.777 38.1572C114.957 38.4782 115.264 38.6387 115.698 38.6387C116.151 38.6387 116.462 38.5065 116.632 38.2422C116.812 37.9779 116.901 37.5436 116.901 36.9395C116.901 36.1748 116.826 35.5376 116.675 35.0278C116.524 34.5086 116.259 34.0177 115.882 33.5552C115.514 33.0832 114.999 32.5356 114.338 31.9126L112.101 29.7886C110.43 28.2121 109.595 26.409 109.595 24.3794C109.595 22.2554 110.086 20.6364 111.067 19.5225C112.059 18.4085 113.489 17.8516 115.358 17.8516C117.642 17.8516 119.261 18.4604 120.215 19.6782C121.178 20.896 121.659 22.7463 121.659 25.229H116.59V23.5156C116.59 23.1758 116.491 22.9115 116.292 22.7227C116.104 22.5339 115.844 22.4395 115.514 22.4395C115.117 22.4395 114.825 22.5527 114.636 22.7793C114.456 22.9964 114.367 23.2796 114.367 23.6289C114.367 23.9782 114.461 24.3558 114.65 24.7617C114.839 25.1676 115.212 25.6349 115.769 26.1636L118.643 28.9248C119.219 29.4723 119.748 30.0529 120.229 30.6665C120.71 31.2707 121.097 31.9787 121.39 32.7905C121.683 33.5929 121.829 34.5747 121.829 35.7358C121.829 38.077 121.395 39.9131 120.526 41.2441C119.667 42.5658 118.166 43.2266 116.023 43.2266Z" fill="white"/>
<path d="M125.638 43V22.8643H122.679V18.0781H133.582V22.8643H130.623V43H125.638Z" fill="white"/>
<path d="M134.97 43V18.0781H142.616C143.891 18.0781 144.854 18.3708 145.505 18.9561C146.156 19.5319 146.59 20.3438 146.808 21.3916C147.034 22.43 147.147 23.6525 147.147 25.0591C147.147 26.4185 146.973 27.5041 146.624 28.3159C146.284 29.1278 145.637 29.6895 144.684 30.001C145.467 30.1615 146.015 30.5532 146.326 31.1763C146.647 31.7899 146.808 32.5876 146.808 33.5693V43H141.894V33.2437C141.894 32.5168 141.743 32.0684 141.441 31.8984C141.148 31.7191 140.672 31.6294 140.011 31.6294V43H134.97ZM140.039 27.3105H141.243C141.932 27.3105 142.276 26.5601 142.276 25.0591C142.276 24.0868 142.201 23.4495 142.05 23.1475C141.899 22.8454 141.616 22.6943 141.2 22.6943H140.039V27.3105Z" fill="white"/>
<path d="M148.79 43V18.0781H158.759V22.8926H153.859V27.7495H158.561V32.4365H153.859V38.1431H159.084V43H148.79Z" fill="white"/>
<path d="M160.741 43V18.0781H165.867L168.161 30.0151V18.0781H172.976V43H168.104L165.612 30.5391V43H160.741Z" fill="white"/>
<path d="M180.325 43.2266C176.766 43.2266 174.986 40.6777 174.986 35.5801V24.8325C174.986 20.1785 177.025 17.8516 181.104 17.8516C182.784 17.8516 184.072 18.1914 184.969 18.8711C185.866 19.5413 186.484 20.5231 186.824 21.8164C187.164 23.1097 187.334 24.6862 187.334 26.5459H182.463V24.3369C182.463 23.7988 182.387 23.3504 182.236 22.9917C182.095 22.6235 181.793 22.4395 181.33 22.4395C180.754 22.4395 180.372 22.633 180.183 23.02C180.004 23.4071 179.914 23.8319 179.914 24.2944V36.373C179.914 37.0433 179.999 37.5908 180.169 38.0156C180.348 38.431 180.693 38.6387 181.203 38.6387C181.731 38.6387 182.081 38.431 182.25 38.0156C182.43 37.5908 182.52 37.0339 182.52 36.3447V32.7905H181.188V28.4858H187.277V43H185.281L184.431 40.9043C183.563 42.4525 182.194 43.2266 180.325 43.2266Z" fill="white"/>
<path d="M191.398 43V22.8643H188.438V18.0781H199.342V22.8643H196.382V43H191.398Z" fill="white"/>
<path d="M200.729 43V18.0781H205.686V26.9849H208.036V18.0781H212.992V43H208.036V31.7002H205.686V43H200.729Z" fill="white"/>
<path d="M28.3501 33.4865V43H9.2743C-0.0182142 29.5604 -4.07451 13.5 5.42542 0L30.5855 9.53674e-06L38.2605 20.7027L45.861 9.53674e-06H69.9254C81.3212 14.4636 74.7546 31.2727 65.7316 43H47.4258V33.4865H50.6299V17.4324L41.8869 43H34.7086L24.3759 16.8108V33.4865H28.3501Z" fill="white"/>
<path d="M107.926 18.8978V43H81.4254C69.9254 36.8172 82.9254 18.8978 74.8124 9.53674e-06H93.9254C99.9254 6.5 95.8628 15.1351 90.4255 23C95.4255 17.4324 100.926 17.4324 107.926 18.8978Z" fill="white"/>
</svg>
